<svg width="99" height="107" viewBox="0 0 99 107" fill="none" xmlns="http://www.w3.org/2000/svg">
<g clip-path="url(#clip0_101_2)">
<path d="M2.8 72V71.2L5.44 70.4C6.4 70.1333 7.09333 69.6267 7.52 68.88C7.94667 68.08 8.16 67.1467 8.16 66.08V27.6C7.57333 26.32 7.09333 25.36 6.72 24.72C6.4 24.08 6.02667 23.5467 5.6 23.12C5.17333 22.64 4.58667 22.0533 3.84 21.36L2.48 20V19.2H16.64L43.2 55.44V25.28C43.2 24.2133 43.0133 23.2533 42.64 22.4C42.32 21.5467 41.6267 20.9867 40.56 20.72L37.92 20V19.2H49.36V20L47.2 20.72C46.24 21.04 45.6533 21.6 45.44 22.4C45.2267 23.2 45.12 24.1333 45.12 25.2V72.24H40.64L10.08 30.24V66.08C10.08 67.1467 10.24 68.0533 10.56 68.8C10.88 69.5467 11.5467 70.08 12.56 70.4L14.96 71.2V72H2.8Z" fill="#709957"/>
<path d="M2.8 72V71.2L5.44 70.4C6.4 70.1333 7.09333 69.6267 7.52 68.88C7.94667 68.08 8.16 67.1467 8.16 66.08V27.6C7.57333 26.32 7.09333 25.36 6.72 24.72C6.4 24.08 6.02667 23.5467 5.6 23.12C5.17333 22.64 4.58667 22.0533 3.84 21.36L2.48 20V19.2H16.64L43.2 55.44V25.28C43.2 24.2133 43.0133 23.2533 42.64 22.4C42.32 21.5467 41.6267 20.9867 40.56 20.72L37.92 20V19.2H49.36V20L47.2 20.72C46.24 21.04 45.6533 21.6 45.44 22.4C45.2267 23.2 45.12 24.1333 45.12 25.2V72.24H40.64L10.08 30.24V66.08C10.08 67.1467 10.24 68.0533 10.56 68.8C10.88 69.5467 11.5467 70.08 12.56 70.4L14.96 71.2V72H2.8Z" fill="black" fill-opacity="0.2"/>
<path d="M37.6 72V71.2L39.2 70.64C41.0133 70.0533 41.92 68.5333 41.92 66.08V25.12C41.92 24.0533 41.7867 23.2 41.52 22.56C41.3067 21.92 40.6933 21.3867 39.68 20.96L37.6 20V19.2H53.04L67.84 57.92L81.76 19.2H97.52V20L96.24 20.48C95.2267 20.8533 94.5333 21.3867 94.16 22.08C93.7867 22.72 93.6 23.5733 93.6 24.64V66.48C93.6 67.5467 93.7333 68.3733 94 68.96C94.2667 69.5467 94.9067 70.0533 95.92 70.48L97.52 71.2V72H77.6V71.2L79.28 70.48C80.2933 70.0533 80.9333 69.5467 81.2 68.96C81.4667 68.3733 81.6 67.5467 81.6 66.48V48.48L81.76 25.6L65.04 72H61.04L43.6 26.16L43.84 46.08V66.24C43.84 67.4133 44 68.3733 44.32 69.12C44.6933 69.8133 45.3867 70.32 46.4 70.64L48.16 71.2V72H37.6Z" fill="#3D5F28" fill-opacity="0.88"/>
<path d="M37.6 72V71.2L39.2 70.64C41.0133 70.0533 41.92 68.5333 41.92 66.08V25.12C41.92 24.0533 41.7867 23.2 41.52 22.56C41.3067 21.92 40.6933 21.3867 39.68 20.96L37.6 20V19.2H53.04L67.84 57.92L81.76 19.2H97.52V20L96.24 20.48C95.2267 20.8533 94.5333 21.3867 94.16 22.08C93.7867 22.72 93.6 23.5733 93.6 24.64V66.48C93.6 67.5467 93.7333 68.3733 94 68.96C94.2667 69.5467 94.9067 70.0533 95.92 70.48L97.52 71.2V72H77.6V71.2L79.28 70.48C80.2933 70.0533 80.9333 69.5467 81.2 68.96C81.4667 68.3733 81.6 67.5467 81.6 66.48V48.48L81.76 25.6L65.04 72H61.04L43.6 26.16L43.84 46.08V66.24C43.84 67.4133 44 68.3733 44.32 69.12C44.6933 69.8133 45.3867 70.32 46.4 70.64L48.16 71.2V72H37.6Z" fill="black" fill-opacity="0.2"/>
</g>
<defs>
<clipPath id="clip0_101_2">
<rect width="99" height="107" fill="white"/>
</clipPath>
</defs>
</svg>
