<svg width="74" height="27" viewBox="0 0 74 27" fill="none" xmlns="http://www.w3.org/2000/svg">
<g clip-path="url(#clip0_31_12)">
<path d="M15.26 26V25.64L16.448 25.28C16.88 25.16 17.192 24.932 17.384 24.596C17.576 24.236 17.672 23.816 17.672 23.336V6.02C17.408 5.444 17.192 5.012 17.024 4.724C16.88 4.436 16.712 4.196 16.52 4.004C16.328 3.788 16.064 3.524 15.728 3.212L15.116 2.6V2.24H21.488L33.44 18.548V4.976C33.44 4.496 33.356 4.064 33.188 3.68C33.044 3.296 32.732 3.044 32.252 2.924L31.064 2.6V2.24H36.212V2.6L35.24 2.924C34.808 3.068 34.544 3.32 34.448 3.68C34.352 4.04 34.304 4.46 34.304 4.94V26.108H32.288L18.536 7.208V23.336C18.536 23.816 18.608 24.224 18.752 24.56C18.896 24.896 19.196 25.136 19.652 25.28L20.732 25.64V26H15.26Z" fill="#709957"/>
<path d="M15.26 26V25.64L16.448 25.28C16.88 25.16 17.192 24.932 17.384 24.596C17.576 24.236 17.672 23.816 17.672 23.336V6.02C17.408 5.444 17.192 5.012 17.024 4.724C16.88 4.436 16.712 4.196 16.52 4.004C16.328 3.788 16.064 3.524 15.728 3.212L15.116 2.6V2.24H21.488L33.44 18.548V4.976C33.44 4.496 33.356 4.064 33.188 3.68C33.044 3.296 32.732 3.044 32.252 2.924L31.064 2.6V2.24H36.212V2.6L35.24 2.924C34.808 3.068 34.544 3.32 34.448 3.68C34.352 4.04 34.304 4.46 34.304 4.94V26.108H32.288L18.536 7.208V23.336C18.536 23.816 18.608 24.224 18.752 24.56C18.896 24.896 19.196 25.136 19.652 25.28L20.732 25.64V26H15.26Z" fill="black" fill-opacity="0.2"/>
<path d="M31.5047 26V25.64L32.2247 25.388C33.0407 25.124 33.4487 24.44 33.4487 23.336V4.904C33.4487 4.424 33.3887 4.04 33.2687 3.752C33.1727 3.464 32.8967 3.224 32.4407 3.032L31.5047 2.6V2.24H38.4527L45.1127 19.664L51.3767 2.24H58.4687V2.6L57.8927 2.816C57.4367 2.984 57.1247 3.224 56.9567 3.536C56.7887 3.824 56.7047 4.208 56.7047 4.688V23.516C56.7047 23.996 56.7647 24.368 56.8847 24.632C57.0047 24.896 57.2927 25.124 57.7487 25.316L58.4687 25.64V26H49.5047V25.64L50.2607 25.316C50.7167 25.124 51.0047 24.896 51.1247 24.632C51.2447 24.368 51.3047 23.996 51.3047 23.516V15.416L51.3767 5.12L43.8527 26H42.0527L34.2047 5.372L34.3127 14.336V23.408C34.3127 23.936 34.3847 24.368 34.5287 24.704C34.6967 25.016 35.0087 25.244 35.4647 25.388L36.2567 25.64V26H31.5047Z" fill="#3D5F28" fill-opacity="0.88"/>
<path d="M31.5047 26V25.64L32.2247 25.388C33.0407 25.124 33.4487 24.44 33.4487 23.336V4.904C33.4487 4.424 33.3887 4.04 33.2687 3.752C33.1727 3.464 32.8967 3.224 32.4407 3.032L31.5047 2.6V2.24H38.4527L45.1127 19.664L51.3767 2.24H58.4687V2.6L57.8927 2.816C57.4367 2.984 57.1247 3.224 56.9567 3.536C56.7887 3.824 56.7047 4.208 56.7047 4.688V23.516C56.7047 23.996 56.7647 24.368 56.8847 24.632C57.0047 24.896 57.2927 25.124 57.7487 25.316L58.4687 25.64V26H49.5047V25.64L50.2607 25.316C50.7167 25.124 51.0047 24.896 51.1247 24.632C51.2447 24.368 51.3047 23.996 51.3047 23.516V15.416L51.3767 5.12L43.8527 26H42.0527L34.2047 5.372L34.3127 14.336V23.408C34.3127 23.936 34.3847 24.368 34.5287 24.704C34.6967 25.016 35.0087 25.244 35.4647 25.388L36.2567 25.64V26H31.5047Z" fill="black" fill-opacity="0.2"/>
</g>
<defs>
<clipPath id="clip0_31_12">
<rect width="74" height="27" fill="white"/>
</clipPath>
</defs>
</svg>
