<svg width="76" height="75" viewBox="0 0 76 75" fill="none" xmlns="http://www.w3.org/2000/svg">
<ellipse cx="38" cy="37.1524" rx="38" ry="37.1524" fill="#E4E4E4"/>
<path d="M64.1839 37.217C64.4344 37.3757 64.4869 37.4749 64.4976 37.5C64.4869 37.5251 64.4344 37.6243 64.1839 37.783C63.8797 37.9757 63.3985 38.1799 62.7317 38.3843C61.4053 38.7908 59.4606 39.1636 57.0276 39.479C52.1688 40.1089 45.4413 40.5 38 40.5C30.5587 40.5 23.8312 40.1089 18.9724 39.479C16.5394 39.1636 14.5947 38.7908 13.2683 38.3843C12.6015 38.1799 12.1203 37.9757 11.8161 37.783C11.5655 37.6242 11.513 37.5251 11.5024 37.5C11.513 37.4749 11.5655 37.3758 11.8161 37.217C12.1203 37.0243 12.6015 36.8201 13.2683 36.6157C14.5947 36.2092 16.5394 35.8364 18.9724 35.521C23.8312 34.8911 30.5587 34.5 38 34.5C45.4413 34.5 52.1688 34.8911 57.0276 35.521C59.4606 35.8364 61.4053 36.2092 62.7317 36.6157C63.3985 36.8201 63.8797 37.0243 64.1839 37.217Z" fill="#C4C4C4" stroke="black"/>
<line x1="11.3536" y1="37.6464" x2="17.3536" y2="43.6464" stroke="black"/>
<line x1="17" y1="43.5" x2="59" y2="43.5" stroke="black"/>
<line x1="64.3385" y1="38.1198" x2="58.8698" y2="43.9467" stroke="black"/>
<path d="M37.5 33.5C37.5 34.498 36.8232 35.487 35.5461 36.2532C34.2789 37.0135 32.496 37.5 30.5 37.5C28.504 37.5 26.7211 37.0135 25.4539 36.2532C24.1768 35.487 23.5 34.498 23.5 33.5C23.5 32.502 24.1768 31.513 25.4539 30.7468C26.7211 29.9865 28.504 29.5 30.5 29.5C32.496 29.5 34.2789 29.9865 35.5461 30.7468C36.8232 31.513 37.5 32.502 37.5 33.5Z" fill="#C4C4C4" stroke="black"/>
<path d="M52.5 33.5C52.5 34.498 51.8232 35.487 50.5461 36.2532C49.2789 37.0135 47.496 37.5 45.5 37.5C43.504 37.5 41.7211 37.0135 40.4539 36.2532C39.1768 35.487 38.5 34.498 38.5 33.5C38.5 32.502 39.1768 31.513 40.4539 30.7468C41.7211 29.9865 43.504 29.5 45.5 29.5C47.496 29.5 49.2789 29.9865 50.5461 30.7468C51.8232 31.513 52.5 32.502 52.5 33.5Z" fill="#C4C4C4" stroke="black"/>
<path d="M45.5 36.5C45.5 37.498 44.8232 38.487 43.5461 39.2532C42.2789 40.0135 40.496 40.5 38.5 40.5C36.504 40.5 34.7211 40.0135 33.4539 39.2532C32.1768 38.487 31.5 37.498 31.5 36.5C31.5 35.502 32.1768 34.513 33.4539 33.7468C34.7211 32.9865 36.504 32.5 38.5 32.5C40.496 32.5 42.2789 32.9865 43.5461 33.7468C44.8232 34.513 45.5 35.502 45.5 36.5Z" fill="#C4C4C4" stroke="black"/>
</svg>
