<svg width="76" height="75" viewBox="0 0 76 75" fill="none" xmlns="http://www.w3.org/2000/svg">
<ellipse cx="38" cy="37.1524" rx="38" ry="37.1524" fill="#E4E4E4"/>
<circle cx="22.5" cy="38.8048" r="4" fill="#FEFEFE" stroke="black"/>
<line x1="11.3123" y1="42.9144" x2="16.3123" y2="46.9144" stroke="black"/>
<path d="M64.5 43.3048C64.5 43.3366 64.4758 43.4761 64.1582 43.7059C63.8555 43.9251 63.3771 44.1573 62.7129 44.3899C61.3908 44.853 59.45 45.2784 57.0186 45.6386C52.1635 46.3579 45.4392 46.8048 38 46.8048C30.5608 46.8048 23.8365 46.3579 18.9814 45.6386C16.55 45.2784 14.6092 44.853 13.2871 44.3899C12.6229 44.1573 12.1445 43.9251 11.8418 43.7059C11.5242 43.4761 11.5 43.3366 11.5 43.3048C11.5 43.273 11.5242 43.1336 11.8418 42.9037C12.1445 42.6845 12.6229 42.4524 13.2871 42.2197C14.6092 41.7566 16.55 41.3312 18.9814 40.971C23.8365 40.2517 30.5608 39.8048 38 39.8048C45.4392 39.8048 52.1635 40.2517 57.0186 40.971C59.45 41.3312 61.3908 41.7566 62.7129 42.2197C63.3771 42.4524 63.8555 42.6845 64.1582 42.9037C64.4758 43.1336 64.5 43.273 64.5 43.3048Z" fill="#F3F3F3" stroke="black"/>
<path d="M23.2694 42.5548L38.5 10.4707L53.7306 42.5548H23.2694Z" fill="#FEFEFE" stroke="black"/>
<line x1="64.7331" y1="43.7322" x2="59.2594" y2="47.0547" stroke="black"/>
<line x1="15" y1="46.8048" x2="61" y2="46.8048" stroke="black"/>
<path d="M29 40.8048C29 43.0139 27.2091 44.8048 25 44.8048C22.7909 44.8048 21 43.0139 21 40.8048C21 38.5957 22.7909 36.8048 25 36.8048C27.2091 36.8048 29 38.5957 29 40.8048Z" fill="#FEFEFE" stroke="black"/>
<circle cx="33.5" cy="40.8048" r="4" fill="#FEFEFE" stroke="black"/>
<circle cx="41.5" cy="40.8048" r="4" fill="#FEFEFE" stroke="black"/>
<circle cx="54.5" cy="38.8048" r="4" fill="#FEFEFE" stroke="black"/>
<circle cx="49.5" cy="40.8048" r="4" fill="#FEFEFE" stroke="black"/>
</svg>
