<svg width="159" height="154" viewBox="0 0 159 154" fill="none" xmlns="http://www.w3.org/2000/svg">
<path d="M138 100.5C126.533 139.55 114.095 146.85 83.7079 154C37.4773 154 0 119.526 0 77C0 34.4741 37.4773 0 83.7079 0C174.296 0 169.5 77 138 100.5Z" fill="#F8F9F2"/>
<path d="M88 76C80.2593 87 94.6142 118 67 118C39.3858 118 17 96.9574 17 71C17 45.0426 43.3858 36 71 36C110 41.5 97.5 62.5 88 76Z" fill="#F6F8C2"/>
<path d="M24 36H36L59.1 94.9248V36H67.2V70.5V105H54.1714L32.5714 46.6858V105H24V36Z" fill="#667962"/>
<path d="M58.2002 36H67.7497L90.9412 84.5443L112.769 36H123V105H112.769V53.4027L90.9412 105L67.7497 53.4027V105H58.2002V36Z" fill="#667962"/>
</svg>
