<svg width="156" height="107" viewBox="0 0 156 107" fill="none" xmlns="http://www.w3.org/2000/svg">
<rect x="22" y="26" width="129" height="81" rx="8" fill="#747E72"/>
<path d="M88.7524 73.775C87.7184 74.5095 86.3342 74.5145 85.295 73.7873L24.8003 31.458C22.3968 29.7763 23.5868 26 26.5202 26H146.597C149.52 26 150.717 29.7531 148.335 31.4457L88.7524 73.775Z" fill="#E4E4E4"/>
<rect x="5" y="6" width="72" height="81" fill="black" fill-opacity="0.15"/>
<rect width="72" height="81" fill="#F4F4FE"/>
<path d="M34.008 71H33.432V70.416H34.008V71ZM35.4455 71H34.8695V70.416H35.4455V71ZM36.883 71H36.307V70.416H36.883V71ZM38.3205 71H37.7445V70.416H38.3205V71ZM39.758 71H39.182V70.416H39.758V71ZM41.1955 71H40.6195V70.416H41.1955V71ZM42.633 71H42.057V70.416H42.633V71ZM44.0705 71H43.4945V70.416H44.0705V71ZM45.508 71H44.932V70.416H45.508V71ZM46.9455 71H46.3695V70.416H46.9455V71ZM48.383 71H47.807V70.416H48.383V71ZM49.8205 71H49.2445V70.416H49.8205V71ZM51.258 71H50.682V70.416H51.258V71ZM52.6955 71H52.1195V70.416H52.6955V71ZM54.133 71H53.557V70.416H54.133V71ZM55.5705 71H54.9945V70.416H55.5705V71ZM57.008 71H56.432V70.416H57.008V71ZM58.4455 71H57.8695V70.416H58.4455V71ZM59.883 71H59.307V70.416H59.883V71ZM61.3205 71H60.7445V70.416H61.3205V71Z" fill="black" fill-opacity="0.74"/>
<path d="M34.008 53H33.432V52.416H34.008V53ZM35.4455 53H34.8695V52.416H35.4455V53ZM36.883 53H36.307V52.416H36.883V53ZM38.3205 53H37.7445V52.416H38.3205V53ZM39.758 53H39.182V52.416H39.758V53ZM41.1955 53H40.6195V52.416H41.1955V53ZM42.633 53H42.057V52.416H42.633V53ZM44.0705 53H43.4945V52.416H44.0705V53ZM45.508 53H44.932V52.416H45.508V53ZM46.9455 53H46.3695V52.416H46.9455V53ZM48.383 53H47.807V52.416H48.383V53ZM49.8205 53H49.2445V52.416H49.8205V53ZM51.258 53H50.682V52.416H51.258V53ZM52.6955 53H52.1195V52.416H52.6955V53ZM54.133 53H53.557V52.416H54.133V53ZM55.5705 53H54.9945V52.416H55.5705V53ZM57.008 53H56.432V52.416H57.008V53ZM58.4455 53H57.8695V52.416H58.4455V53ZM59.883 53H59.307V52.416H59.883V53ZM61.3205 53H60.7445V52.416H61.3205V53Z" fill="black" fill-opacity="0.74"/>
<path d="M24.44 32.776V35H23.92V29.56H25.544C26.0347 29.56 26.4133 29.6907 26.68 29.952C26.952 30.208 27.088 30.5547 27.088 30.992V31.336C27.088 31.6613 27.0107 31.9413 26.856 32.176C26.7013 32.4107 26.4773 32.5787 26.184 32.68C26.4187 33.048 26.6373 33.4267 26.84 33.816C27.048 34.2053 27.24 34.6 27.416 35H26.808C26.648 34.616 26.472 34.24 26.28 33.872C26.088 33.4987 25.8827 33.1333 25.664 32.776H24.44ZM25.544 30.032H24.44V32.304H25.544C25.8427 32.304 26.0827 32.2187 26.264 32.048C26.4507 31.872 26.544 31.6347 26.544 31.336V30.992C26.544 30.688 26.4507 30.4533 26.264 30.288C26.0827 30.1173 25.8427 30.032 25.544 30.032ZM31.2694 34.768C31.0508 34.88 30.8214 34.96 30.5814 35.008C30.3468 35.056 30.1334 35.08 29.9414 35.08C29.3974 35.08 28.9921 34.9227 28.7254 34.608C28.4641 34.2933 28.3334 33.8533 28.3334 33.288V32.808C28.3334 32.2693 28.4668 31.8373 28.7334 31.512C29.0001 31.1867 29.3841 31.024 29.8854 31.024C30.2801 31.024 30.6108 31.1413 30.8774 31.376C31.1494 31.6107 31.2854 31.9653 31.2854 32.44C31.2854 32.6587 31.2534 32.9093 31.1894 33.192H28.8214V33.288C28.8214 33.7253 28.9094 34.0613 29.0854 34.296C29.2614 34.5253 29.5468 34.64 29.9414 34.64C30.1014 34.64 30.2854 34.6187 30.4934 34.576C30.7068 34.5333 30.9121 34.4667 31.1094 34.376L31.2694 34.768ZM29.8854 31.464C29.5281 31.464 29.2614 31.5813 29.0854 31.816C28.9094 32.0453 28.8214 32.3627 28.8214 32.768H30.7814C30.7921 32.6987 30.8001 32.6347 30.8054 32.576C30.8108 32.512 30.8134 32.4533 30.8134 32.4C30.8134 32.0693 30.7201 31.832 30.5334 31.688C30.3521 31.5387 30.1361 31.464 29.8854 31.464ZM32.7828 32.808V33.288C32.7828 33.7253 32.8654 34.0613 33.0308 34.296C33.1961 34.5253 33.4601 34.64 33.8228 34.64C33.9934 34.64 34.1668 34.6187 34.3428 34.576C34.5188 34.528 34.6974 34.4613 34.8788 34.376L35.0388 34.768C34.6334 34.976 34.2148 35.08 33.7828 35.08C33.2868 35.08 32.9108 34.9227 32.6548 34.608C32.4041 34.2933 32.2788 33.8533 32.2788 33.288V32.808C32.2788 32.248 32.4041 31.8107 32.6548 31.496C32.9108 31.1813 33.2868 31.024 33.7828 31.024C33.9694 31.024 34.1668 31.048 34.3748 31.096C34.5828 31.144 34.7801 31.216 34.9668 31.312L34.8068 31.712C34.6468 31.6373 34.4841 31.5787 34.3188 31.536C34.1534 31.488 33.9881 31.464 33.8228 31.464C33.4601 31.464 33.1961 31.5787 33.0308 31.808C32.8654 32.0373 32.7828 32.3707 32.7828 32.808ZM38.7851 34.768C38.5664 34.88 38.3371 34.96 38.0971 35.008C37.8624 35.056 37.6491 35.08 37.4571 35.08C36.9131 35.08 36.5077 34.9227 36.2411 34.608C35.9797 34.2933 35.8491 33.8533 35.8491 33.288V32.808C35.8491 32.2693 35.9824 31.8373 36.2491 31.512C36.5157 31.1867 36.8997 31.024 37.4011 31.024C37.7957 31.024 38.1264 31.1413 38.3931 31.376C38.6651 31.6107 38.8011 31.9653 38.8011 32.44C38.8011 32.6587 38.7691 32.9093 38.7051 33.192H36.3371V33.288C36.3371 33.7253 36.4251 34.0613 36.6011 34.296C36.7771 34.5253 37.0624 34.64 37.4571 34.64C37.6171 34.64 37.8011 34.6187 38.0091 34.576C38.2224 34.5333 38.4277 34.4667 38.6251 34.376L38.7851 34.768ZM37.4011 31.464C37.0437 31.464 36.7771 31.5813 36.6011 31.816C36.4251 32.0453 36.3371 32.3627 36.3371 32.768H38.2971C38.3077 32.6987 38.3157 32.6347 38.3211 32.576C38.3264 32.512 38.3291 32.4533 38.3291 32.4C38.3291 32.0693 38.2357 31.832 38.0491 31.688C37.8677 31.5387 37.6517 31.464 37.4011 31.464ZM40.5224 29.992H39.9464V29.408H40.5224V29.992ZM40.4744 35H39.9944V31.104H40.4744V35ZM43.4744 35.08C43.309 35.08 43.141 35.0613 42.9704 35.024C42.805 34.992 42.6397 34.944 42.4744 34.88V36.704H41.9944V31.104H42.4504V31.656C42.6904 31.4373 42.9197 31.2773 43.1384 31.176C43.357 31.0747 43.581 31.024 43.8104 31.024C44.221 31.024 44.533 31.1813 44.7464 31.496C44.965 31.8053 45.0744 32.2453 45.0744 32.816V33.296C45.0744 33.84 44.9384 34.2747 44.6664 34.6C44.3944 34.92 43.997 35.08 43.4744 35.08ZM43.7144 31.48C43.5437 31.48 43.365 31.5227 43.1784 31.608C42.997 31.688 42.7624 31.8613 42.4744 32.128V34.416C42.805 34.5653 43.1304 34.64 43.4504 34.64C43.8504 34.64 44.1357 34.52 44.3064 34.28C44.4824 34.04 44.5704 33.712 44.5704 33.296V32.816C44.5704 32.3573 44.501 32.0213 44.3624 31.808C44.2237 31.5893 44.0077 31.48 43.7144 31.48ZM48.3926 34.848C48.0993 35.0027 47.8033 35.08 47.5046 35.08C47.238 35.08 47.03 35.0267 46.8806 34.92C46.7313 34.808 46.6273 34.6613 46.5686 34.48C46.51 34.2987 46.4806 34.1067 46.4806 33.904V31.528H45.7686V31.104H46.4806V29.968H46.9606V31.104H48.2806V31.528H46.9606V33.864C46.9606 34.1627 47.006 34.3707 47.0966 34.488C47.1926 34.6 47.3473 34.656 47.5606 34.656C47.7633 34.656 47.9846 34.592 48.2246 34.464L48.3926 34.848Z" fill="black" fill-opacity="0.74"/>
<path d="M34.008 63H33.432V62.416H34.008V63ZM35.4455 63H34.8695V62.416H35.4455V63ZM36.883 63H36.307V62.416H36.883V63ZM38.3205 63H37.7445V62.416H38.3205V63ZM39.758 63H39.182V62.416H39.758V63ZM41.1955 63H40.6195V62.416H41.1955V63ZM42.633 63H42.057V62.416H42.633V63ZM44.0705 63H43.4945V62.416H44.0705V63ZM45.508 63H44.932V62.416H45.508V63ZM46.9455 63H46.3695V62.416H46.9455V63ZM48.383 63H47.807V62.416H48.383V63ZM49.8205 63H49.2445V62.416H49.8205V63ZM51.258 63H50.682V62.416H51.258V63ZM52.6955 63H52.1195V62.416H52.6955V63ZM54.133 63H53.557V62.416H54.133V63ZM55.5705 63H54.9945V62.416H55.5705V63ZM57.008 63H56.432V62.416H57.008V63ZM58.4455 63H57.8695V62.416H58.4455V63ZM59.883 63H59.307V62.416H59.883V63ZM61.3205 63H60.7445V62.416H61.3205V63Z" fill="black" fill-opacity="0.74"/>
<path d="M12.92 21V15.56H13.544C13.8907 16.0827 14.2133 16.5973 14.512 17.104C14.816 17.6053 15.1067 18.1173 15.384 18.64C15.6613 19.1627 15.9307 19.7093 16.192 20.28L16.12 17.896V15.56H16.64V21H16.016C15.616 20.1413 15.2053 19.328 14.784 18.56C14.368 17.7867 13.9093 17.0107 13.408 16.232L13.44 18.672V21H12.92ZM21.0985 21.04C20.8798 21.04 20.6985 20.9867 20.5545 20.88C20.4105 20.768 20.3252 20.6213 20.2985 20.44C20.0105 20.696 19.7572 20.8667 19.5385 20.952C19.3198 21.0373 19.1145 21.08 18.9225 21.08C18.5812 21.08 18.3278 20.9707 18.1625 20.752C18.0025 20.528 17.9225 20.2613 17.9225 19.952C17.9225 19.744 17.9598 19.5573 18.0345 19.392C18.1145 19.2267 18.2452 19.096 18.4265 19C18.6078 18.8987 18.8558 18.848 19.1705 18.848C19.3145 18.848 19.4825 18.8587 19.6745 18.88C19.8665 18.896 20.0532 18.92 20.2345 18.952V18.376C20.2345 18.0293 20.1678 17.792 20.0345 17.664C19.9012 17.5307 19.6932 17.464 19.4105 17.464C19.2185 17.464 19.0292 17.4907 18.8425 17.544C18.6558 17.592 18.4612 17.664 18.2585 17.76L18.0905 17.368C18.3092 17.256 18.5252 17.1707 18.7385 17.112C18.9572 17.0533 19.1812 17.024 19.4105 17.024C19.7678 17.024 20.0372 17.0827 20.2185 17.2C20.4052 17.312 20.5332 17.464 20.6025 17.656C20.6718 17.848 20.7065 18.0613 20.7065 18.296V20.104C20.7065 20.2533 20.7305 20.3733 20.7785 20.464C20.8318 20.5547 20.9332 20.6 21.0825 20.6H21.1785V21.04H21.0985ZM18.4185 19.952C18.4185 20.1653 18.4665 20.336 18.5625 20.464C18.6638 20.592 18.8078 20.656 18.9945 20.656C19.1438 20.656 19.3172 20.608 19.5145 20.512C19.7172 20.416 19.9572 20.2427 20.2345 19.992V19.376C20.0478 19.344 19.8558 19.32 19.6585 19.304C19.4665 19.2827 19.3065 19.272 19.1785 19.272C18.9118 19.272 18.7172 19.328 18.5945 19.44C18.4772 19.5467 18.4185 19.7173 18.4185 19.952ZM24.0455 17.48C23.8802 17.48 23.6908 17.52 23.4775 17.6C23.2642 17.68 22.9975 17.8507 22.6775 18.112V21H22.1975V17.104H22.6535V17.664C22.9628 17.408 23.2348 17.2373 23.4695 17.152C23.7042 17.0667 23.9228 17.024 24.1255 17.024C24.4828 17.024 24.7548 17.1333 24.9415 17.352C25.1282 17.5707 25.2215 17.8853 25.2215 18.296V21H24.7415V18.384C24.7415 18.0693 24.6828 17.84 24.5655 17.696C24.4535 17.552 24.2802 17.48 24.0455 17.48ZM29.4813 21.04C29.2626 21.04 29.0813 20.9867 28.9373 20.88C28.7933 20.768 28.708 20.6213 28.6813 20.44C28.3933 20.696 28.14 20.8667 27.9213 20.952C27.7026 21.0373 27.4973 21.08 27.3053 21.08C26.964 21.08 26.7106 20.9707 26.5453 20.752C26.3853 20.528 26.3053 20.2613 26.3053 19.952C26.3053 19.744 26.3426 19.5573 26.4173 19.392C26.4973 19.2267 26.628 19.096 26.8093 19C26.9906 18.8987 27.2386 18.848 27.5533 18.848C27.6973 18.848 27.8653 18.8587 28.0573 18.88C28.2493 18.896 28.436 18.92 28.6173 18.952V18.376C28.6173 18.0293 28.5506 17.792 28.4173 17.664C28.284 17.5307 28.076 17.464 27.7933 17.464C27.6013 17.464 27.412 17.4907 27.2253 17.544C27.0386 17.592 26.844 17.664 26.6413 17.76L26.4733 17.368C26.692 17.256 26.908 17.1707 27.1213 17.112C27.34 17.0533 27.564 17.024 27.7933 17.024C28.1506 17.024 28.42 17.0827 28.6013 17.2C28.788 17.312 28.916 17.464 28.9853 17.656C29.0546 17.848 29.0893 18.0613 29.0893 18.296V20.104C29.0893 20.2533 29.1133 20.3733 29.1613 20.464C29.2146 20.5547 29.316 20.6 29.4653 20.6H29.5613V21.04H29.4813ZM26.8013 19.952C26.8013 20.1653 26.8493 20.336 26.9453 20.464C27.0466 20.592 27.1906 20.656 27.3773 20.656C27.5266 20.656 27.7 20.608 27.8973 20.512C28.1 20.416 28.34 20.2427 28.6173 19.992V19.376C28.4306 19.344 28.2386 19.32 28.0413 19.304C27.8493 19.2827 27.6893 19.272 27.5613 19.272C27.2946 19.272 27.1 19.328 26.9773 19.44C26.86 19.5467 26.8013 19.7173 26.8013 19.952ZM32.3883 17.48C32.2283 17.48 32.0443 17.5227 31.8363 17.608C31.6336 17.688 31.375 17.856 31.0603 18.112V21H30.5803V17.104H31.0363V17.664C31.335 17.4133 31.5963 17.2453 31.8203 17.16C32.0496 17.0693 32.2656 17.024 32.4683 17.024C32.9643 17.024 33.287 17.248 33.4363 17.696C33.751 17.4293 34.0256 17.2507 34.2603 17.16C34.5003 17.0693 34.7243 17.024 34.9323 17.024C35.279 17.024 35.5403 17.1333 35.7163 17.352C35.8976 17.5707 35.9883 17.8853 35.9883 18.296V21H35.5083V18.384C35.5083 18.0693 35.455 17.84 35.3483 17.696C35.2416 17.552 35.0763 17.48 34.8523 17.48C34.6923 17.48 34.5083 17.5227 34.3003 17.608C34.0923 17.688 33.831 17.856 33.5163 18.112C33.5216 18.1387 33.5243 18.168 33.5243 18.2C33.5243 18.232 33.5243 18.264 33.5243 18.296V21H33.0443V18.384C33.0443 18.0693 32.991 17.84 32.8843 17.696C32.7776 17.552 32.6123 17.48 32.3883 17.48ZM40.2469 21.04C40.0283 21.04 39.8469 20.9867 39.7029 20.88C39.5589 20.768 39.4736 20.6213 39.4469 20.44C39.1589 20.696 38.9056 20.8667 38.6869 20.952C38.4683 21.0373 38.2629 21.08 38.0709 21.08C37.7296 21.08 37.4763 20.9707 37.3109 20.752C37.1509 20.528 37.0709 20.2613 37.0709 19.952C37.0709 19.744 37.1083 19.5573 37.1829 19.392C37.2629 19.2267 37.3936 19.096 37.5749 19C37.7563 18.8987 38.0043 18.848 38.3189 18.848C38.4629 18.848 38.6309 18.8587 38.8229 18.88C39.0149 18.896 39.2016 18.92 39.3829 18.952V18.376C39.3829 18.0293 39.3163 17.792 39.1829 17.664C39.0496 17.5307 38.8416 17.464 38.5589 17.464C38.3669 17.464 38.1776 17.4907 37.9909 17.544C37.8043 17.592 37.6096 17.664 37.4069 17.76L37.2389 17.368C37.4576 17.256 37.6736 17.1707 37.8869 17.112C38.1056 17.0533 38.3296 17.024 38.5589 17.024C38.9163 17.024 39.1856 17.0827 39.3669 17.2C39.5536 17.312 39.6816 17.464 39.7509 17.656C39.8203 17.848 39.8549 18.0613 39.8549 18.296V20.104C39.8549 20.2533 39.8789 20.3733 39.9269 20.464C39.9803 20.5547 40.0816 20.6 40.2309 20.6H40.3269V21.04H40.2469ZM37.5669 19.952C37.5669 20.1653 37.6149 20.336 37.7109 20.464C37.8123 20.592 37.9563 20.656 38.1429 20.656C38.2923 20.656 38.4656 20.608 38.6629 20.512C38.8656 20.416 39.1056 20.2427 39.3829 19.992V19.376C39.1963 19.344 39.0043 19.32 38.8069 19.304C38.6149 19.2827 38.4549 19.272 38.3269 19.272C38.0603 19.272 37.8656 19.328 37.7429 19.44C37.6256 19.5467 37.5669 19.7173 37.5669 19.952ZM43.1539 17.48C42.9939 17.48 42.8099 17.5227 42.6019 17.608C42.3993 17.688 42.1406 17.856 41.8259 18.112V21H41.3459V17.104H41.8019V17.664C42.1006 17.4133 42.3619 17.2453 42.5859 17.16C42.8153 17.0693 43.0313 17.024 43.2339 17.024C43.7299 17.024 44.0526 17.248 44.2019 17.696C44.5166 17.4293 44.7913 17.2507 45.0259 17.16C45.2659 17.0693 45.4899 17.024 45.6979 17.024C46.0446 17.024 46.3059 17.1333 46.4819 17.352C46.6633 17.5707 46.7539 17.8853 46.7539 18.296V21H46.2739V18.384C46.2739 18.0693 46.2206 17.84 46.1139 17.696C46.0073 17.552 45.8419 17.48 45.6179 17.48C45.4579 17.48 45.2739 17.5227 45.0659 17.608C44.8579 17.688 44.5966 17.856 44.2819 18.112C44.2873 18.1387 44.2899 18.168 44.2899 18.2C44.2899 18.232 44.2899 18.264 44.2899 18.296V21H43.8099V18.384C43.8099 18.0693 43.7566 17.84 43.6499 17.696C43.5433 17.552 43.3779 17.48 43.1539 17.48ZM51.0126 21.04C50.7939 21.04 50.6126 20.9867 50.4686 20.88C50.3246 20.768 50.2392 20.6213 50.2126 20.44C49.9246 20.696 49.6712 20.8667 49.4526 20.952C49.2339 21.0373 49.0286 21.08 48.8366 21.08C48.4952 21.08 48.2419 20.9707 48.0766 20.752C47.9166 20.528 47.8366 20.2613 47.8366 19.952C47.8366 19.744 47.8739 19.5573 47.9486 19.392C48.0286 19.2267 48.1592 19.096 48.3406 19C48.5219 18.8987 48.7699 18.848 49.0846 18.848C49.2286 18.848 49.3966 18.8587 49.5886 18.88C49.7806 18.896 49.9672 18.92 50.1486 18.952V18.376C50.1486 18.0293 50.0819 17.792 49.9486 17.664C49.8152 17.5307 49.6072 17.464 49.3246 17.464C49.1326 17.464 48.9432 17.4907 48.7566 17.544C48.5699 17.592 48.3752 17.664 48.1726 17.76L48.0046 17.368C48.2232 17.256 48.4392 17.1707 48.6526 17.112C48.8712 17.0533 49.0952 17.024 49.3246 17.024C49.6819 17.024 49.9512 17.0827 50.1326 17.2C50.3192 17.312 50.4472 17.464 50.5166 17.656C50.5859 17.848 50.6206 18.0613 50.6206 18.296V20.104C50.6206 20.2533 50.6446 20.3733 50.6926 20.464C50.7459 20.5547 50.8472 20.6 50.9966 20.6H51.0926V21.04H51.0126ZM48.3326 19.952C48.3326 20.1653 48.3806 20.336 48.4766 20.464C48.5779 20.592 48.7219 20.656 48.9086 20.656C49.0579 20.656 49.2312 20.608 49.4286 20.512C49.6312 20.416 49.8712 20.2427 50.1486 19.992V19.376C49.9619 19.344 49.7699 19.32 49.5726 19.304C49.3806 19.2827 49.2206 19.272 49.0926 19.272C48.8259 19.272 48.6312 19.328 48.5086 19.44C48.3912 19.5467 48.3326 19.7173 48.3326 19.952ZM53.9196 17.48C53.7596 17.48 53.5756 17.5227 53.3676 17.608C53.1649 17.688 52.9062 17.856 52.5916 18.112V21H52.1116V17.104H52.5676V17.664C52.8662 17.4133 53.1276 17.2453 53.3516 17.16C53.5809 17.0693 53.7969 17.024 53.9996 17.024C54.4956 17.024 54.8182 17.248 54.9676 17.696C55.2822 17.4293 55.5569 17.2507 55.7916 17.16C56.0316 17.0693 56.2556 17.024 56.4636 17.024C56.8102 17.024 57.0716 17.1333 57.2476 17.352C57.4289 17.5707 57.5196 17.8853 57.5196 18.296V21H57.0396V18.384C57.0396 18.0693 56.9862 17.84 56.8796 17.696C56.7729 17.552 56.6076 17.48 56.3836 17.48C56.2236 17.48 56.0396 17.5227 55.8316 17.608C55.6236 17.688 55.3622 17.856 55.0476 18.112C55.0529 18.1387 55.0556 18.168 55.0556 18.2C55.0556 18.232 55.0556 18.264 55.0556 18.296V21H54.5756V18.384C54.5756 18.0693 54.5222 17.84 54.4156 17.696C54.3089 17.552 54.1436 17.48 53.9196 17.48Z" fill="black" fill-opacity="0.74"/>
</svg>
